<mxfile host="app.diagrams.net" modified="2023-10-07T03:37:14.400Z" agent="Mozilla/5.0 (Macintosh; Intel Mac OS X 10_15_7) AppleWebKit/537.36 (KHTML, like Gecko) Chrome/117.0.0.0 Safari/537.36" etag="wmD8xNjgbh6z8Jf04Pb1" version="22.0.4" type="github" pages="2">
  <diagram name="Page-1" id="e56a1550-8fbb-45ad-956c-1786394a9013">
    <mxGraphModel dx="1389" dy="701" grid="1" gridSize="10" guides="1" tooltips="1" connect="1" arrows="1" fold="1" page="1" pageScale="1" pageWidth="1100" pageHeight="850" background="none" math="0" shadow="0">
      <root>
        <mxCell id="0" />
        <mxCell id="1" parent="0" />
        <mxCell id="2e49270ec7c68f3f-8" value="Tax" style="swimlane;html=1;fontStyle=0;childLayout=stackLayout;horizontal=1;startSize=26;fillColor=#e0e0e0;horizontalStack=0;resizeParent=1;resizeLast=0;collapsible=1;marginBottom=0;swimlaneFillColor=#ffffff;align=center;rounded=0;shadow=0;comic=0;labelBackgroundColor=none;strokeWidth=1;fontFamily=Verdana;fontSize=14;swimlaneLine=1;" parent="1" vertex="1">
          <mxGeometry x="550" y="240" width="160" height="118" as="geometry" />
        </mxCell>
        <mxCell id="2e49270ec7c68f3f-9" value="taxID" style="shape=partialRectangle;top=0;left=0;right=0;bottom=1;html=1;align=left;verticalAlign=middle;fillColor=none;spacingLeft=34;spacingRight=4;whiteSpace=wrap;overflow=hidden;rotatable=0;points=[[0,0.5],[1,0.5]];portConstraint=eastwest;dropTarget=0;fontStyle=5;" parent="2e49270ec7c68f3f-8" vertex="1">
          <mxGeometry y="26" width="160" height="30" as="geometry" />
        </mxCell>
        <mxCell id="2e49270ec7c68f3f-10" value="PK" style="shape=partialRectangle;top=0;left=0;bottom=0;html=1;fillColor=none;align=left;verticalAlign=middle;spacingLeft=4;spacingRight=4;whiteSpace=wrap;overflow=hidden;rotatable=0;points=[];portConstraint=eastwest;part=1;" parent="2e49270ec7c68f3f-9" vertex="1" connectable="0">
          <mxGeometry width="30" height="30" as="geometry" />
        </mxCell>
        <mxCell id="2e49270ec7c68f3f-11" value="orderID" style="shape=partialRectangle;top=0;left=0;right=0;bottom=0;html=1;align=left;verticalAlign=top;fillColor=none;spacingLeft=34;spacingRight=4;whiteSpace=wrap;overflow=hidden;rotatable=0;points=[[0,0.5],[1,0.5]];portConstraint=eastwest;dropTarget=0;" parent="2e49270ec7c68f3f-8" vertex="1">
          <mxGeometry y="56" width="160" height="26" as="geometry" />
        </mxCell>
        <mxCell id="2e49270ec7c68f3f-12" value="FK" style="shape=partialRectangle;top=0;left=0;bottom=0;html=1;fillColor=none;align=left;verticalAlign=top;spacingLeft=4;spacingRight=4;whiteSpace=wrap;overflow=hidden;rotatable=0;points=[];portConstraint=eastwest;part=1;" parent="2e49270ec7c68f3f-11" vertex="1" connectable="0">
          <mxGeometry width="30" height="26" as="geometry" />
        </mxCell>
        <mxCell id="2e49270ec7c68f3f-13" value="taxRate" style="shape=partialRectangle;top=0;left=0;right=0;bottom=0;html=1;align=left;verticalAlign=top;fillColor=none;spacingLeft=34;spacingRight=4;whiteSpace=wrap;overflow=hidden;rotatable=0;points=[[0,0.5],[1,0.5]];portConstraint=eastwest;dropTarget=0;" parent="2e49270ec7c68f3f-8" vertex="1">
          <mxGeometry y="82" width="160" height="26" as="geometry" />
        </mxCell>
        <mxCell id="2e49270ec7c68f3f-14" value="" style="shape=partialRectangle;top=0;left=0;bottom=0;html=1;fillColor=none;align=left;verticalAlign=top;spacingLeft=4;spacingRight=4;whiteSpace=wrap;overflow=hidden;rotatable=0;points=[];portConstraint=eastwest;part=1;" parent="2e49270ec7c68f3f-13" vertex="1" connectable="0">
          <mxGeometry width="30" height="26" as="geometry" />
        </mxCell>
        <mxCell id="2e49270ec7c68f3f-17" value="" style="shape=partialRectangle;top=0;left=0;right=0;bottom=0;html=1;align=left;verticalAlign=top;fillColor=none;spacingLeft=34;spacingRight=4;whiteSpace=wrap;overflow=hidden;rotatable=0;points=[[0,0.5],[1,0.5]];portConstraint=eastwest;dropTarget=0;" parent="2e49270ec7c68f3f-8" vertex="1">
          <mxGeometry y="108" width="160" height="10" as="geometry" />
        </mxCell>
        <mxCell id="2e49270ec7c68f3f-18" value="" style="shape=partialRectangle;top=0;left=0;bottom=0;html=1;fillColor=none;align=left;verticalAlign=top;spacingLeft=4;spacingRight=4;whiteSpace=wrap;overflow=hidden;rotatable=0;points=[];portConstraint=eastwest;part=1;" parent="2e49270ec7c68f3f-17" vertex="1" connectable="0">
          <mxGeometry width="30" height="10" as="geometry" />
        </mxCell>
        <mxCell id="2e49270ec7c68f3f-19" value="Order" style="swimlane;html=1;fontStyle=0;childLayout=stackLayout;horizontal=1;startSize=26;fillColor=#e0e0e0;horizontalStack=0;resizeParent=1;resizeLast=0;collapsible=1;marginBottom=0;swimlaneFillColor=#ffffff;align=center;rounded=0;shadow=0;comic=0;labelBackgroundColor=none;strokeWidth=1;fontFamily=Verdana;fontSize=14" parent="1" vertex="1">
          <mxGeometry x="220" y="160" width="160" height="180" as="geometry" />
        </mxCell>
        <mxCell id="2e49270ec7c68f3f-20" value="orderID" style="shape=partialRectangle;top=0;left=0;right=0;bottom=1;html=1;align=left;verticalAlign=middle;fillColor=none;spacingLeft=34;spacingRight=4;whiteSpace=wrap;overflow=hidden;rotatable=0;points=[[0,0.5],[1,0.5]];portConstraint=eastwest;dropTarget=0;fontStyle=5;" parent="2e49270ec7c68f3f-19" vertex="1">
          <mxGeometry y="26" width="160" height="30" as="geometry" />
        </mxCell>
        <mxCell id="2e49270ec7c68f3f-21" value="PK" style="shape=partialRectangle;top=0;left=0;bottom=0;html=1;fillColor=none;align=left;verticalAlign=middle;spacingLeft=4;spacingRight=4;whiteSpace=wrap;overflow=hidden;rotatable=0;points=[];portConstraint=eastwest;part=1;" parent="2e49270ec7c68f3f-20" vertex="1" connectable="0">
          <mxGeometry width="30" height="30" as="geometry" />
        </mxCell>
        <mxCell id="2e49270ec7c68f3f-22" value="customerID" style="shape=partialRectangle;top=0;left=0;right=0;bottom=0;html=1;align=left;verticalAlign=top;fillColor=none;spacingLeft=34;spacingRight=4;whiteSpace=wrap;overflow=hidden;rotatable=0;points=[[0,0.5],[1,0.5]];portConstraint=eastwest;dropTarget=0;" parent="2e49270ec7c68f3f-19" vertex="1">
          <mxGeometry y="56" width="160" height="26" as="geometry" />
        </mxCell>
        <mxCell id="2e49270ec7c68f3f-23" value="FK" style="shape=partialRectangle;top=0;left=0;bottom=0;html=1;fillColor=none;align=left;verticalAlign=top;spacingLeft=4;spacingRight=4;whiteSpace=wrap;overflow=hidden;rotatable=0;points=[];portConstraint=eastwest;part=1;" parent="2e49270ec7c68f3f-22" vertex="1" connectable="0">
          <mxGeometry width="30" height="26" as="geometry" />
        </mxCell>
        <mxCell id="2e49270ec7c68f3f-24" value="orderDate" style="shape=partialRectangle;top=0;left=0;right=0;bottom=0;html=1;align=left;verticalAlign=top;fillColor=none;spacingLeft=34;spacingRight=4;whiteSpace=wrap;overflow=hidden;rotatable=0;points=[[0,0.5],[1,0.5]];portConstraint=eastwest;dropTarget=0;" parent="2e49270ec7c68f3f-19" vertex="1">
          <mxGeometry y="82" width="160" height="28" as="geometry" />
        </mxCell>
        <mxCell id="2e49270ec7c68f3f-25" value="" style="shape=partialRectangle;top=0;left=0;bottom=0;html=1;fillColor=none;align=left;verticalAlign=top;spacingLeft=4;spacingRight=4;whiteSpace=wrap;overflow=hidden;rotatable=0;points=[];portConstraint=eastwest;part=1;" parent="2e49270ec7c68f3f-24" vertex="1" connectable="0">
          <mxGeometry width="30" height="28" as="geometry" />
        </mxCell>
        <mxCell id="2e49270ec7c68f3f-26" value="orderNumber&lt;br&gt;&lt;br&gt;customerMeassage" style="shape=partialRectangle;top=0;left=0;right=0;bottom=0;html=1;align=left;verticalAlign=top;fillColor=none;spacingLeft=34;spacingRight=4;whiteSpace=wrap;overflow=hidden;rotatable=0;points=[[0,0.5],[1,0.5]];portConstraint=eastwest;dropTarget=0;" parent="2e49270ec7c68f3f-19" vertex="1">
          <mxGeometry y="110" width="160" height="50" as="geometry" />
        </mxCell>
        <mxCell id="2e49270ec7c68f3f-27" value="" style="shape=partialRectangle;top=0;left=0;bottom=0;html=1;fillColor=none;align=left;verticalAlign=top;spacingLeft=4;spacingRight=4;whiteSpace=wrap;overflow=hidden;rotatable=0;points=[];portConstraint=eastwest;part=1;" parent="2e49270ec7c68f3f-26" vertex="1" connectable="0">
          <mxGeometry width="30" height="50" as="geometry" />
        </mxCell>
        <mxCell id="2e49270ec7c68f3f-28" value="" style="shape=partialRectangle;top=0;left=0;right=0;bottom=0;html=1;align=left;verticalAlign=top;fillColor=none;spacingLeft=34;spacingRight=4;whiteSpace=wrap;overflow=hidden;rotatable=0;points=[[0,0.5],[1,0.5]];portConstraint=eastwest;dropTarget=0;" parent="2e49270ec7c68f3f-19" vertex="1">
          <mxGeometry y="160" width="160" height="20" as="geometry" />
        </mxCell>
        <mxCell id="2e49270ec7c68f3f-29" value="" style="shape=partialRectangle;top=0;left=0;bottom=0;html=1;fillColor=none;align=left;verticalAlign=top;spacingLeft=4;spacingRight=4;whiteSpace=wrap;overflow=hidden;rotatable=0;points=[];portConstraint=eastwest;part=1;" parent="2e49270ec7c68f3f-28" vertex="1" connectable="0">
          <mxGeometry width="30" height="20" as="geometry" />
        </mxCell>
        <mxCell id="2e49270ec7c68f3f-30" value="Item" style="swimlane;html=1;fontStyle=0;childLayout=stackLayout;horizontal=1;startSize=26;fillColor=#e0e0e0;horizontalStack=0;resizeParent=1;resizeLast=0;collapsible=1;marginBottom=0;swimlaneFillColor=#ffffff;align=center;rounded=0;shadow=0;comic=0;labelBackgroundColor=none;strokeWidth=1;fontFamily=Verdana;fontSize=14" parent="1" vertex="1">
          <mxGeometry x="470" y="480" width="160" height="280" as="geometry" />
        </mxCell>
        <mxCell id="2e49270ec7c68f3f-31" value="itemID" style="shape=partialRectangle;top=0;left=0;right=0;bottom=1;html=1;align=left;verticalAlign=middle;fillColor=none;spacingLeft=34;spacingRight=4;whiteSpace=wrap;overflow=hidden;rotatable=0;points=[[0,0.5],[1,0.5]];portConstraint=eastwest;dropTarget=0;fontStyle=5;" parent="2e49270ec7c68f3f-30" vertex="1">
          <mxGeometry y="26" width="160" height="30" as="geometry" />
        </mxCell>
        <mxCell id="2e49270ec7c68f3f-32" value="PK" style="shape=partialRectangle;top=0;left=0;bottom=0;html=1;fillColor=none;align=left;verticalAlign=middle;spacingLeft=4;spacingRight=4;whiteSpace=wrap;overflow=hidden;rotatable=0;points=[];portConstraint=eastwest;part=1;" parent="2e49270ec7c68f3f-31" vertex="1" connectable="0">
          <mxGeometry width="30" height="30" as="geometry" />
        </mxCell>
        <mxCell id="2e49270ec7c68f3f-33" value="orderID&lt;br&gt;&lt;br&gt;itemNumber&lt;br&gt;&lt;br&gt;itemDescription&lt;br&gt;&lt;br&gt;quantityOrdered&lt;br&gt;&lt;br&gt;unitPrice&lt;br&gt;&lt;br&gt;totalPrice&lt;br&gt;&lt;br&gt;isTaxable" style="shape=partialRectangle;top=0;left=0;right=0;bottom=0;html=1;align=left;verticalAlign=top;fillColor=none;spacingLeft=34;spacingRight=4;whiteSpace=wrap;overflow=hidden;rotatable=0;points=[[0,0.5],[1,0.5]];portConstraint=eastwest;dropTarget=0;" parent="2e49270ec7c68f3f-30" vertex="1">
          <mxGeometry y="56" width="160" height="214" as="geometry" />
        </mxCell>
        <mxCell id="2e49270ec7c68f3f-34" value="FK" style="shape=partialRectangle;top=0;left=0;bottom=0;html=1;fillColor=none;align=left;verticalAlign=top;spacingLeft=4;spacingRight=4;whiteSpace=wrap;overflow=hidden;rotatable=0;points=[];portConstraint=eastwest;part=1;" parent="2e49270ec7c68f3f-33" vertex="1" connectable="0">
          <mxGeometry width="30" height="214.00000000000003" as="geometry" />
        </mxCell>
        <mxCell id="2e49270ec7c68f3f-39" value="" style="shape=partialRectangle;top=0;left=0;right=0;bottom=0;html=1;align=left;verticalAlign=top;fillColor=none;spacingLeft=34;spacingRight=4;whiteSpace=wrap;overflow=hidden;rotatable=0;points=[[0,0.5],[1,0.5]];portConstraint=eastwest;dropTarget=0;" parent="2e49270ec7c68f3f-30" vertex="1">
          <mxGeometry y="270" width="160" height="10" as="geometry" />
        </mxCell>
        <mxCell id="2e49270ec7c68f3f-40" value="" style="shape=partialRectangle;top=0;left=0;bottom=0;html=1;fillColor=none;align=left;verticalAlign=top;spacingLeft=4;spacingRight=4;whiteSpace=wrap;overflow=hidden;rotatable=0;points=[];portConstraint=eastwest;part=1;" parent="2e49270ec7c68f3f-39" vertex="1" connectable="0">
          <mxGeometry width="30" height="10" as="geometry" />
        </mxCell>
        <mxCell id="2e49270ec7c68f3f-55" value="" style="edgeStyle=orthogonalEdgeStyle;html=1;endArrow=ERzeroToMany;startArrow=ERmandOne;labelBackgroundColor=none;fontFamily=Verdana;fontSize=14;exitX=0;exitY=0.2;startFill=0;endFill=0;exitDx=0;exitDy=0;exitPerimeter=0;entryX=0;entryY=0.5;entryDx=0;entryDy=0;" parent="1" target="2e49270ec7c68f3f-22" edge="1">
          <mxGeometry width="100" height="100" relative="1" as="geometry">
            <mxPoint x="30" y="400" as="sourcePoint" />
            <mxPoint x="210" y="230" as="targetPoint" />
            <Array as="points">
              <mxPoint x="11" y="400" />
              <mxPoint x="11" y="230" />
            </Array>
          </mxGeometry>
        </mxCell>
        <mxCell id="2e49270ec7c68f3f-80" value="Customer" style="swimlane;html=1;fontStyle=0;childLayout=stackLayout;horizontal=1;startSize=26;fillColor=#e0e0e0;horizontalStack=0;resizeParent=1;resizeLast=0;collapsible=1;marginBottom=0;swimlaneFillColor=#ffffff;align=center;rounded=0;shadow=0;comic=0;labelBackgroundColor=none;strokeWidth=1;fontFamily=Verdana;fontSize=14" parent="1" vertex="1">
          <mxGeometry x="30" y="358" width="160" height="192" as="geometry" />
        </mxCell>
        <mxCell id="2e49270ec7c68f3f-81" value="customerID" style="shape=partialRectangle;top=0;left=0;right=0;bottom=1;html=1;align=left;verticalAlign=middle;fillColor=none;spacingLeft=34;spacingRight=4;whiteSpace=wrap;overflow=hidden;rotatable=0;points=[[0,0.5],[1,0.5]];portConstraint=eastwest;dropTarget=0;fontStyle=5;" parent="2e49270ec7c68f3f-80" vertex="1">
          <mxGeometry y="26" width="160" height="30" as="geometry" />
        </mxCell>
        <mxCell id="2e49270ec7c68f3f-82" value="PK" style="shape=partialRectangle;top=0;left=0;bottom=0;html=1;fillColor=none;align=left;verticalAlign=middle;spacingLeft=4;spacingRight=4;whiteSpace=wrap;overflow=hidden;rotatable=0;points=[];portConstraint=eastwest;part=1;" parent="2e49270ec7c68f3f-81" vertex="1" connectable="0">
          <mxGeometry width="30" height="30" as="geometry" />
        </mxCell>
        <mxCell id="2e49270ec7c68f3f-83" value="customerName" style="shape=partialRectangle;top=0;left=0;right=0;bottom=0;html=1;align=left;verticalAlign=top;fillColor=none;spacingLeft=34;spacingRight=4;whiteSpace=wrap;overflow=hidden;rotatable=0;points=[[0,0.5],[1,0.5]];portConstraint=eastwest;dropTarget=0;" parent="2e49270ec7c68f3f-80" vertex="1">
          <mxGeometry y="56" width="160" height="26" as="geometry" />
        </mxCell>
        <mxCell id="2e49270ec7c68f3f-84" value="" style="shape=partialRectangle;top=0;left=0;bottom=0;html=1;fillColor=none;align=left;verticalAlign=top;spacingLeft=4;spacingRight=4;whiteSpace=wrap;overflow=hidden;rotatable=0;points=[];portConstraint=eastwest;part=1;" parent="2e49270ec7c68f3f-83" vertex="1" connectable="0">
          <mxGeometry width="30" height="26" as="geometry" />
        </mxCell>
        <mxCell id="2e49270ec7c68f3f-85" value="streetAddress" style="shape=partialRectangle;top=0;left=0;right=0;bottom=0;html=1;align=left;verticalAlign=top;fillColor=none;spacingLeft=34;spacingRight=4;whiteSpace=wrap;overflow=hidden;rotatable=0;points=[[0,0.5],[1,0.5]];portConstraint=eastwest;dropTarget=0;" parent="2e49270ec7c68f3f-80" vertex="1">
          <mxGeometry y="82" width="160" height="26" as="geometry" />
        </mxCell>
        <mxCell id="2e49270ec7c68f3f-86" value="" style="shape=partialRectangle;top=0;left=0;bottom=0;html=1;fillColor=none;align=left;verticalAlign=top;spacingLeft=4;spacingRight=4;whiteSpace=wrap;overflow=hidden;rotatable=0;points=[];portConstraint=eastwest;part=1;" parent="2e49270ec7c68f3f-85" vertex="1" connectable="0">
          <mxGeometry width="30" height="26" as="geometry" />
        </mxCell>
        <mxCell id="2e49270ec7c68f3f-87" value="city&lt;br&gt;" style="shape=partialRectangle;top=0;left=0;right=0;bottom=0;html=1;align=left;verticalAlign=top;fillColor=none;spacingLeft=34;spacingRight=4;whiteSpace=wrap;overflow=hidden;rotatable=0;points=[[0,0.5],[1,0.5]];portConstraint=eastwest;dropTarget=0;" parent="2e49270ec7c68f3f-80" vertex="1">
          <mxGeometry y="108" width="160" height="26" as="geometry" />
        </mxCell>
        <mxCell id="2e49270ec7c68f3f-88" value="" style="shape=partialRectangle;top=0;left=0;bottom=0;html=1;fillColor=none;align=left;verticalAlign=top;spacingLeft=4;spacingRight=4;whiteSpace=wrap;overflow=hidden;rotatable=0;points=[];portConstraint=eastwest;part=1;" parent="2e49270ec7c68f3f-87" vertex="1" connectable="0">
          <mxGeometry width="30" height="26" as="geometry" />
        </mxCell>
        <mxCell id="2e49270ec7c68f3f-89" value="state&lt;br&gt;&lt;br&gt;zipCode&lt;br&gt;" style="shape=partialRectangle;top=0;left=0;right=0;bottom=0;html=1;align=left;verticalAlign=top;fillColor=none;spacingLeft=34;spacingRight=4;whiteSpace=wrap;overflow=hidden;rotatable=0;points=[[0,0.5],[1,0.5]];portConstraint=eastwest;dropTarget=0;" parent="2e49270ec7c68f3f-80" vertex="1">
          <mxGeometry y="134" width="160" height="56" as="geometry" />
        </mxCell>
        <mxCell id="2e49270ec7c68f3f-90" value="" style="shape=partialRectangle;top=0;left=0;bottom=0;html=1;fillColor=none;align=left;verticalAlign=top;spacingLeft=4;spacingRight=4;whiteSpace=wrap;overflow=hidden;rotatable=0;points=[];portConstraint=eastwest;part=1;" parent="2e49270ec7c68f3f-89" vertex="1" connectable="0">
          <mxGeometry width="30" height="56" as="geometry" />
        </mxCell>
        <mxCell id="-YSaMhehuUiuvKA7-zMi-15" value="" style="edgeStyle=entityRelationEdgeStyle;html=1;endArrow=ERzeroToMany;startArrow=ERmandOne;labelBackgroundColor=none;fontFamily=Verdana;fontSize=14;exitX=1;exitY=0.5;exitDx=0;exitDy=0;entryX=0.006;entryY=0.07;entryDx=0;entryDy=0;entryPerimeter=0;startFill=0;" edge="1" parent="1">
          <mxGeometry width="100" height="100" relative="1" as="geometry">
            <mxPoint x="379.04" y="200.02" as="sourcePoint" />
            <mxPoint x="470.00000000000006" y="550" as="targetPoint" />
            <Array as="points">
              <mxPoint x="519.04" y="369.02" />
              <mxPoint x="479.04" y="279.02" />
              <mxPoint x="449.04" y="348.02" />
              <mxPoint x="349.04" y="439.02" />
              <mxPoint x="449.04" y="489.02" />
              <mxPoint x="409.04" y="349.02" />
              <mxPoint x="329.04" y="379.02" />
              <mxPoint x="439.04" y="496.02" />
              <mxPoint x="539.04" y="389.02" />
              <mxPoint x="329.04" y="379.02" />
              <mxPoint x="229.04" y="429.02" />
              <mxPoint x="219.04" y="429.02" />
              <mxPoint x="319.04" y="379.02" />
            </Array>
          </mxGeometry>
        </mxCell>
        <mxCell id="-YSaMhehuUiuvKA7-zMi-17" value="" style="edgeStyle=entityRelationEdgeStyle;html=1;endArrow=ERzeroToMany;startArrow=ERmandOne;labelBackgroundColor=none;fontFamily=Verdana;fontSize=14;entryX=0;entryY=0.5;entryDx=0;entryDy=0;startFill=0;" edge="1" parent="1" target="2e49270ec7c68f3f-11">
          <mxGeometry width="100" height="100" relative="1" as="geometry">
            <mxPoint x="380" y="200" as="sourcePoint" />
            <mxPoint x="520.96" y="473.99" as="targetPoint" />
            <Array as="points">
              <mxPoint x="570" y="293.01" />
              <mxPoint x="520.96" y="183.99" />
              <mxPoint x="530" y="203.01" />
              <mxPoint x="570.96" y="203.99" />
              <mxPoint x="500" y="272.01" />
              <mxPoint x="400" y="363.01" />
              <mxPoint x="500" y="413.01" />
              <mxPoint x="460" y="273.01" />
              <mxPoint x="380" y="303.01" />
              <mxPoint x="490" y="420.01" />
              <mxPoint x="590" y="313.01" />
              <mxPoint x="380" y="303.01" />
              <mxPoint x="280" y="353.01" />
              <mxPoint x="270" y="353.01" />
              <mxPoint x="370" y="303.01" />
            </Array>
          </mxGeometry>
        </mxCell>
      </root>
    </mxGraphModel>
  </diagram>
  <diagram id="3iyDU6GiQyg_IT2F81bY" name="Page-2">
    <mxGraphModel dx="1042" dy="526" grid="1" gridSize="10" guides="1" tooltips="1" connect="1" arrows="1" fold="1" page="1" pageScale="1" pageWidth="850" pageHeight="1100" math="0" shadow="0">
      <root>
        <mxCell id="0" />
        <mxCell id="1" parent="0" />
        <mxCell id="BHa4Ss5WcjBv3VKoAYES-1" value="Person" style="swimlane;html=1;fontStyle=0;childLayout=stackLayout;horizontal=1;startSize=26;fillColor=#e0e0e0;horizontalStack=0;resizeParent=1;resizeLast=0;collapsible=1;marginBottom=0;swimlaneFillColor=#ffffff;align=center;rounded=0;shadow=0;comic=0;labelBackgroundColor=none;strokeWidth=1;fontFamily=Verdana;fontSize=14" vertex="1" parent="1">
          <mxGeometry x="280" y="20" width="160" height="110" as="geometry" />
        </mxCell>
        <mxCell id="BHa4Ss5WcjBv3VKoAYES-2" value="idNumber" style="shape=partialRectangle;top=0;left=0;right=0;bottom=1;html=1;align=left;verticalAlign=middle;fillColor=none;spacingLeft=34;spacingRight=4;whiteSpace=wrap;overflow=hidden;rotatable=0;points=[[0,0.5],[1,0.5]];portConstraint=eastwest;dropTarget=0;fontStyle=5;" vertex="1" parent="BHa4Ss5WcjBv3VKoAYES-1">
          <mxGeometry y="26" width="160" height="30" as="geometry" />
        </mxCell>
        <mxCell id="BHa4Ss5WcjBv3VKoAYES-3" value="PK" style="shape=partialRectangle;top=0;left=0;bottom=0;html=1;fillColor=none;align=left;verticalAlign=middle;spacingLeft=4;spacingRight=4;whiteSpace=wrap;overflow=hidden;rotatable=0;points=[];portConstraint=eastwest;part=1;" vertex="1" connectable="0" parent="BHa4Ss5WcjBv3VKoAYES-2">
          <mxGeometry width="30" height="30" as="geometry" />
        </mxCell>
        <mxCell id="BHa4Ss5WcjBv3VKoAYES-4" value="firstName" style="shape=partialRectangle;top=0;left=0;right=0;bottom=0;html=1;align=left;verticalAlign=top;fillColor=none;spacingLeft=34;spacingRight=4;whiteSpace=wrap;overflow=hidden;rotatable=0;points=[[0,0.5],[1,0.5]];portConstraint=eastwest;dropTarget=0;" vertex="1" parent="BHa4Ss5WcjBv3VKoAYES-1">
          <mxGeometry y="56" width="160" height="26" as="geometry" />
        </mxCell>
        <mxCell id="BHa4Ss5WcjBv3VKoAYES-5" value="" style="shape=partialRectangle;top=0;left=0;bottom=0;html=1;fillColor=none;align=left;verticalAlign=top;spacingLeft=4;spacingRight=4;whiteSpace=wrap;overflow=hidden;rotatable=0;points=[];portConstraint=eastwest;part=1;" vertex="1" connectable="0" parent="BHa4Ss5WcjBv3VKoAYES-4">
          <mxGeometry width="30" height="26" as="geometry" />
        </mxCell>
        <mxCell id="BHa4Ss5WcjBv3VKoAYES-6" value="lastName" style="shape=partialRectangle;top=0;left=0;right=0;bottom=0;html=1;align=left;verticalAlign=top;fillColor=none;spacingLeft=34;spacingRight=4;whiteSpace=wrap;overflow=hidden;rotatable=0;points=[[0,0.5],[1,0.5]];portConstraint=eastwest;dropTarget=0;" vertex="1" parent="BHa4Ss5WcjBv3VKoAYES-1">
          <mxGeometry y="82" width="160" height="26" as="geometry" />
        </mxCell>
        <mxCell id="BHa4Ss5WcjBv3VKoAYES-7" value="" style="shape=partialRectangle;top=0;left=0;bottom=0;html=1;fillColor=none;align=left;verticalAlign=top;spacingLeft=4;spacingRight=4;whiteSpace=wrap;overflow=hidden;rotatable=0;points=[];portConstraint=eastwest;part=1;" vertex="1" connectable="0" parent="BHa4Ss5WcjBv3VKoAYES-6">
          <mxGeometry width="30" height="26" as="geometry" />
        </mxCell>
        <mxCell id="BHa4Ss5WcjBv3VKoAYES-12" value="Student" style="swimlane;html=1;fontStyle=0;childLayout=stackLayout;horizontal=1;startSize=26;fillColor=#e0e0e0;horizontalStack=0;resizeParent=1;resizeLast=0;collapsible=1;marginBottom=0;swimlaneFillColor=#ffffff;align=center;rounded=0;shadow=0;comic=0;labelBackgroundColor=none;strokeWidth=1;fontFamily=Verdana;fontSize=14" vertex="1" parent="1">
          <mxGeometry x="50" y="160" width="160" height="110" as="geometry" />
        </mxCell>
        <mxCell id="BHa4Ss5WcjBv3VKoAYES-13" value="idNumber" style="shape=partialRectangle;top=0;left=0;right=0;bottom=1;html=1;align=left;verticalAlign=middle;fillColor=none;spacingLeft=34;spacingRight=4;whiteSpace=wrap;overflow=hidden;rotatable=0;points=[[0,0.5],[1,0.5]];portConstraint=eastwest;dropTarget=0;fontStyle=5;" vertex="1" parent="BHa4Ss5WcjBv3VKoAYES-12">
          <mxGeometry y="26" width="160" height="30" as="geometry" />
        </mxCell>
        <mxCell id="BHa4Ss5WcjBv3VKoAYES-14" value="PK" style="shape=partialRectangle;top=0;left=0;bottom=0;html=1;fillColor=none;align=left;verticalAlign=middle;spacingLeft=4;spacingRight=4;whiteSpace=wrap;overflow=hidden;rotatable=0;points=[];portConstraint=eastwest;part=1;" vertex="1" connectable="0" parent="BHa4Ss5WcjBv3VKoAYES-13">
          <mxGeometry width="30" height="30" as="geometry" />
        </mxCell>
        <mxCell id="BHa4Ss5WcjBv3VKoAYES-15" value="enrollmentDate" style="shape=partialRectangle;top=0;left=0;right=0;bottom=0;html=1;align=left;verticalAlign=top;fillColor=none;spacingLeft=34;spacingRight=4;whiteSpace=wrap;overflow=hidden;rotatable=0;points=[[0,0.5],[1,0.5]];portConstraint=eastwest;dropTarget=0;" vertex="1" parent="BHa4Ss5WcjBv3VKoAYES-12">
          <mxGeometry y="56" width="160" height="26" as="geometry" />
        </mxCell>
        <mxCell id="BHa4Ss5WcjBv3VKoAYES-16" value="" style="shape=partialRectangle;top=0;left=0;bottom=0;html=1;fillColor=none;align=left;verticalAlign=top;spacingLeft=4;spacingRight=4;whiteSpace=wrap;overflow=hidden;rotatable=0;points=[];portConstraint=eastwest;part=1;" vertex="1" connectable="0" parent="BHa4Ss5WcjBv3VKoAYES-15">
          <mxGeometry width="30" height="26" as="geometry" />
        </mxCell>
        <mxCell id="BHa4Ss5WcjBv3VKoAYES-17" value="courses" style="shape=partialRectangle;top=0;left=0;right=0;bottom=0;html=1;align=left;verticalAlign=top;fillColor=none;spacingLeft=34;spacingRight=4;whiteSpace=wrap;overflow=hidden;rotatable=0;points=[[0,0.5],[1,0.5]];portConstraint=eastwest;dropTarget=0;" vertex="1" parent="BHa4Ss5WcjBv3VKoAYES-12">
          <mxGeometry y="82" width="160" height="26" as="geometry" />
        </mxCell>
        <mxCell id="BHa4Ss5WcjBv3VKoAYES-18" value="" style="shape=partialRectangle;top=0;left=0;bottom=0;html=1;fillColor=none;align=left;verticalAlign=top;spacingLeft=4;spacingRight=4;whiteSpace=wrap;overflow=hidden;rotatable=0;points=[];portConstraint=eastwest;part=1;" vertex="1" connectable="0" parent="BHa4Ss5WcjBv3VKoAYES-17">
          <mxGeometry width="30" height="26" as="geometry" />
        </mxCell>
        <mxCell id="FS1MWatXtpEkcnSkGoes-1" value="Faculty" style="swimlane;html=1;fontStyle=0;childLayout=stackLayout;horizontal=1;startSize=26;fillColor=#e0e0e0;horizontalStack=0;resizeParent=1;resizeLast=0;collapsible=1;marginBottom=0;swimlaneFillColor=#ffffff;align=center;rounded=0;shadow=0;comic=0;labelBackgroundColor=none;strokeWidth=1;fontFamily=Verdana;fontSize=14" vertex="1" parent="1">
          <mxGeometry x="510" y="160" width="130" height="90" as="geometry" />
        </mxCell>
        <mxCell id="FS1MWatXtpEkcnSkGoes-2" value="idNumber" style="shape=partialRectangle;top=0;left=0;right=0;bottom=1;html=1;align=left;verticalAlign=middle;fillColor=none;spacingLeft=34;spacingRight=4;whiteSpace=wrap;overflow=hidden;rotatable=0;points=[[0,0.5],[1,0.5]];portConstraint=eastwest;dropTarget=0;fontStyle=5;" vertex="1" parent="FS1MWatXtpEkcnSkGoes-1">
          <mxGeometry y="26" width="130" height="30" as="geometry" />
        </mxCell>
        <mxCell id="FS1MWatXtpEkcnSkGoes-3" value="PK" style="shape=partialRectangle;top=0;left=0;bottom=0;html=1;fillColor=none;align=left;verticalAlign=middle;spacingLeft=4;spacingRight=4;whiteSpace=wrap;overflow=hidden;rotatable=0;points=[];portConstraint=eastwest;part=1;" vertex="1" connectable="0" parent="FS1MWatXtpEkcnSkGoes-2">
          <mxGeometry width="30" height="30" as="geometry" />
        </mxCell>
        <mxCell id="FS1MWatXtpEkcnSkGoes-4" value="departmentID" style="shape=partialRectangle;top=0;left=0;right=0;bottom=0;html=1;align=left;verticalAlign=top;fillColor=none;spacingLeft=34;spacingRight=4;whiteSpace=wrap;overflow=hidden;rotatable=0;points=[[0,0.5],[1,0.5]];portConstraint=eastwest;dropTarget=0;" vertex="1" parent="FS1MWatXtpEkcnSkGoes-1">
          <mxGeometry y="56" width="130" height="34" as="geometry" />
        </mxCell>
        <mxCell id="FS1MWatXtpEkcnSkGoes-5" value="FK" style="shape=partialRectangle;top=0;left=0;bottom=0;html=1;fillColor=none;align=left;verticalAlign=top;spacingLeft=4;spacingRight=4;whiteSpace=wrap;overflow=hidden;rotatable=0;points=[];portConstraint=eastwest;part=1;" vertex="1" connectable="0" parent="FS1MWatXtpEkcnSkGoes-4">
          <mxGeometry width="30" height="34" as="geometry" />
        </mxCell>
        <mxCell id="FS1MWatXtpEkcnSkGoes-12" value="Course" style="swimlane;html=1;fontStyle=0;childLayout=stackLayout;horizontal=1;startSize=26;fillColor=#e0e0e0;horizontalStack=0;resizeParent=1;resizeLast=0;collapsible=1;marginBottom=0;swimlaneFillColor=#ffffff;align=center;rounded=0;shadow=0;comic=0;labelBackgroundColor=none;strokeWidth=1;fontFamily=Verdana;fontSize=14" vertex="1" parent="1">
          <mxGeometry x="300" y="315" width="160" height="164" as="geometry" />
        </mxCell>
        <mxCell id="FS1MWatXtpEkcnSkGoes-13" value="courseID" style="shape=partialRectangle;top=0;left=0;right=0;bottom=1;html=1;align=left;verticalAlign=middle;fillColor=none;spacingLeft=34;spacingRight=4;whiteSpace=wrap;overflow=hidden;rotatable=0;points=[[0,0.5],[1,0.5]];portConstraint=eastwest;dropTarget=0;fontStyle=5;" vertex="1" parent="FS1MWatXtpEkcnSkGoes-12">
          <mxGeometry y="26" width="160" height="30" as="geometry" />
        </mxCell>
        <mxCell id="FS1MWatXtpEkcnSkGoes-14" value="PK" style="shape=partialRectangle;top=0;left=0;bottom=0;html=1;fillColor=none;align=left;verticalAlign=middle;spacingLeft=4;spacingRight=4;whiteSpace=wrap;overflow=hidden;rotatable=0;points=[];portConstraint=eastwest;part=1;" vertex="1" connectable="0" parent="FS1MWatXtpEkcnSkGoes-13">
          <mxGeometry width="30" height="30" as="geometry" />
        </mxCell>
        <mxCell id="FS1MWatXtpEkcnSkGoes-15" value="departmentID&lt;br&gt;&lt;br&gt;facultyID" style="shape=partialRectangle;top=0;left=0;right=0;bottom=0;html=1;align=left;verticalAlign=top;fillColor=none;spacingLeft=34;spacingRight=4;whiteSpace=wrap;overflow=hidden;rotatable=0;points=[[0,0.5],[1,0.5]];portConstraint=eastwest;dropTarget=0;" vertex="1" parent="FS1MWatXtpEkcnSkGoes-12">
          <mxGeometry y="56" width="160" height="60" as="geometry" />
        </mxCell>
        <mxCell id="FS1MWatXtpEkcnSkGoes-16" value="FK&lt;br&gt;&lt;br&gt;FK" style="shape=partialRectangle;top=0;left=0;bottom=0;html=1;fillColor=none;align=left;verticalAlign=top;spacingLeft=4;spacingRight=4;whiteSpace=wrap;overflow=hidden;rotatable=0;points=[];portConstraint=eastwest;part=1;" vertex="1" connectable="0" parent="FS1MWatXtpEkcnSkGoes-15">
          <mxGeometry width="30" height="60" as="geometry" />
        </mxCell>
        <mxCell id="FS1MWatXtpEkcnSkGoes-17" value="description" style="shape=partialRectangle;top=0;left=0;right=0;bottom=0;html=1;align=left;verticalAlign=top;fillColor=none;spacingLeft=34;spacingRight=4;whiteSpace=wrap;overflow=hidden;rotatable=0;points=[[0,0.5],[1,0.5]];portConstraint=eastwest;dropTarget=0;" vertex="1" parent="FS1MWatXtpEkcnSkGoes-12">
          <mxGeometry y="116" width="160" height="28" as="geometry" />
        </mxCell>
        <mxCell id="FS1MWatXtpEkcnSkGoes-18" value="" style="shape=partialRectangle;top=0;left=0;bottom=0;html=1;fillColor=none;align=left;verticalAlign=top;spacingLeft=4;spacingRight=4;whiteSpace=wrap;overflow=hidden;rotatable=0;points=[];portConstraint=eastwest;part=1;" vertex="1" connectable="0" parent="FS1MWatXtpEkcnSkGoes-17">
          <mxGeometry width="30" height="28" as="geometry" />
        </mxCell>
        <mxCell id="FS1MWatXtpEkcnSkGoes-21" value="" style="shape=partialRectangle;top=0;left=0;right=0;bottom=0;html=1;align=left;verticalAlign=top;fillColor=none;spacingLeft=34;spacingRight=4;whiteSpace=wrap;overflow=hidden;rotatable=0;points=[[0,0.5],[1,0.5]];portConstraint=eastwest;dropTarget=0;" vertex="1" parent="FS1MWatXtpEkcnSkGoes-12">
          <mxGeometry y="144" width="160" height="20" as="geometry" />
        </mxCell>
        <mxCell id="FS1MWatXtpEkcnSkGoes-22" value="" style="shape=partialRectangle;top=0;left=0;bottom=0;html=1;fillColor=none;align=left;verticalAlign=top;spacingLeft=4;spacingRight=4;whiteSpace=wrap;overflow=hidden;rotatable=0;points=[];portConstraint=eastwest;part=1;" vertex="1" connectable="0" parent="FS1MWatXtpEkcnSkGoes-21">
          <mxGeometry width="30" height="20" as="geometry" />
        </mxCell>
        <mxCell id="FS1MWatXtpEkcnSkGoes-23" value="Department" style="swimlane;html=1;fontStyle=0;childLayout=stackLayout;horizontal=1;startSize=26;fillColor=#e0e0e0;horizontalStack=0;resizeParent=1;resizeLast=0;collapsible=1;marginBottom=0;swimlaneFillColor=#ffffff;align=center;rounded=0;shadow=0;comic=0;labelBackgroundColor=none;strokeWidth=1;fontFamily=Verdana;fontSize=14" vertex="1" parent="1">
          <mxGeometry x="670" y="10" width="160" height="120" as="geometry" />
        </mxCell>
        <mxCell id="FS1MWatXtpEkcnSkGoes-24" value="departmentID" style="shape=partialRectangle;top=0;left=0;right=0;bottom=1;html=1;align=left;verticalAlign=middle;fillColor=none;spacingLeft=34;spacingRight=4;whiteSpace=wrap;overflow=hidden;rotatable=0;points=[[0,0.5],[1,0.5]];portConstraint=eastwest;dropTarget=0;fontStyle=5;" vertex="1" parent="FS1MWatXtpEkcnSkGoes-23">
          <mxGeometry y="26" width="160" height="30" as="geometry" />
        </mxCell>
        <mxCell id="FS1MWatXtpEkcnSkGoes-25" value="PK" style="shape=partialRectangle;top=0;left=0;bottom=0;html=1;fillColor=none;align=left;verticalAlign=middle;spacingLeft=4;spacingRight=4;whiteSpace=wrap;overflow=hidden;rotatable=0;points=[];portConstraint=eastwest;part=1;" vertex="1" connectable="0" parent="FS1MWatXtpEkcnSkGoes-24">
          <mxGeometry width="30" height="30" as="geometry" />
        </mxCell>
        <mxCell id="FS1MWatXtpEkcnSkGoes-26" value="chairpersonID&lt;br&gt;&lt;br&gt;departmentName" style="shape=partialRectangle;top=0;left=0;right=0;bottom=0;html=1;align=left;verticalAlign=top;fillColor=none;spacingLeft=34;spacingRight=4;whiteSpace=wrap;overflow=hidden;rotatable=0;points=[[0,0.5],[1,0.5]];portConstraint=eastwest;dropTarget=0;" vertex="1" parent="FS1MWatXtpEkcnSkGoes-23">
          <mxGeometry y="56" width="160" height="64" as="geometry" />
        </mxCell>
        <mxCell id="FS1MWatXtpEkcnSkGoes-27" value="FK" style="shape=partialRectangle;top=0;left=0;bottom=0;html=1;fillColor=none;align=left;verticalAlign=top;spacingLeft=4;spacingRight=4;whiteSpace=wrap;overflow=hidden;rotatable=0;points=[];portConstraint=eastwest;part=1;" vertex="1" connectable="0" parent="FS1MWatXtpEkcnSkGoes-26">
          <mxGeometry width="30" height="64" as="geometry" />
        </mxCell>
        <mxCell id="7VVRhvUxhWVmFDyaeFcK-12" value="CourseRegistration" style="swimlane;html=1;fontStyle=0;childLayout=stackLayout;horizontal=1;startSize=26;fillColor=#e0e0e0;horizontalStack=0;resizeParent=1;resizeLast=0;collapsible=1;marginBottom=0;swimlaneFillColor=#ffffff;align=center;rounded=0;shadow=0;comic=0;labelBackgroundColor=none;strokeWidth=1;fontFamily=Verdana;fontSize=14" vertex="1" parent="1">
          <mxGeometry x="550" y="315" width="160" height="90" as="geometry" />
        </mxCell>
        <mxCell id="7VVRhvUxhWVmFDyaeFcK-13" value="&lt;blockquote style=&quot;margin: 0 0 0 40px; border: none; padding: 0px;&quot;&gt;studentID&lt;/blockquote&gt;" style="shape=partialRectangle;top=0;left=0;right=0;bottom=1;html=1;align=left;verticalAlign=middle;fillColor=none;spacingLeft=34;spacingRight=4;whiteSpace=wrap;overflow=hidden;rotatable=0;points=[[0,0.5],[1,0.5]];portConstraint=eastwest;dropTarget=0;fontStyle=5;" vertex="1" parent="7VVRhvUxhWVmFDyaeFcK-12">
          <mxGeometry y="26" width="160" height="30" as="geometry" />
        </mxCell>
        <mxCell id="7VVRhvUxhWVmFDyaeFcK-14" value="PK, FK" style="shape=partialRectangle;top=0;left=0;bottom=0;html=1;fillColor=none;align=left;verticalAlign=middle;spacingLeft=4;spacingRight=4;whiteSpace=wrap;overflow=hidden;rotatable=0;points=[];portConstraint=eastwest;part=1;" vertex="1" connectable="0" parent="7VVRhvUxhWVmFDyaeFcK-13">
          <mxGeometry width="60" height="30" as="geometry" />
        </mxCell>
        <mxCell id="7VVRhvUxhWVmFDyaeFcK-15" value="&amp;nbsp; &amp;nbsp; &amp;nbsp; &amp;nbsp; &amp;nbsp; &amp;nbsp; courseID" style="shape=partialRectangle;top=0;left=0;right=0;bottom=0;html=1;align=left;verticalAlign=top;fillColor=none;spacingLeft=34;spacingRight=4;whiteSpace=wrap;overflow=hidden;rotatable=0;points=[[0,0.5],[1,0.5]];portConstraint=eastwest;dropTarget=0;" vertex="1" parent="7VVRhvUxhWVmFDyaeFcK-12">
          <mxGeometry y="56" width="160" height="34" as="geometry" />
        </mxCell>
        <mxCell id="7VVRhvUxhWVmFDyaeFcK-16" value="FK, PK&lt;br&gt;" style="shape=partialRectangle;top=0;left=0;bottom=0;html=1;fillColor=none;align=left;verticalAlign=top;spacingLeft=4;spacingRight=4;whiteSpace=wrap;overflow=hidden;rotatable=0;points=[];portConstraint=eastwest;part=1;" vertex="1" connectable="0" parent="7VVRhvUxhWVmFDyaeFcK-15">
          <mxGeometry width="60" height="34" as="geometry" />
        </mxCell>
        <mxCell id="7VVRhvUxhWVmFDyaeFcK-24" value="Assignment" style="swimlane;html=1;fontStyle=0;childLayout=stackLayout;horizontal=1;startSize=26;fillColor=#e0e0e0;horizontalStack=0;resizeParent=1;resizeLast=0;collapsible=1;marginBottom=0;swimlaneFillColor=#ffffff;align=center;rounded=0;shadow=0;comic=0;labelBackgroundColor=none;strokeWidth=1;fontFamily=Verdana;fontSize=14" vertex="1" parent="1">
          <mxGeometry x="540" y="460" width="160" height="230" as="geometry" />
        </mxCell>
        <mxCell id="7VVRhvUxhWVmFDyaeFcK-25" value="assignmentID" style="shape=partialRectangle;top=0;left=0;right=0;bottom=1;html=1;align=left;verticalAlign=middle;fillColor=none;spacingLeft=34;spacingRight=4;whiteSpace=wrap;overflow=hidden;rotatable=0;points=[[0,0.5],[1,0.5]];portConstraint=eastwest;dropTarget=0;fontStyle=5;" vertex="1" parent="7VVRhvUxhWVmFDyaeFcK-24">
          <mxGeometry y="26" width="160" height="30" as="geometry" />
        </mxCell>
        <mxCell id="7VVRhvUxhWVmFDyaeFcK-26" value="PK" style="shape=partialRectangle;top=0;left=0;bottom=0;html=1;fillColor=none;align=left;verticalAlign=middle;spacingLeft=4;spacingRight=4;whiteSpace=wrap;overflow=hidden;rotatable=0;points=[];portConstraint=eastwest;part=1;" vertex="1" connectable="0" parent="7VVRhvUxhWVmFDyaeFcK-25">
          <mxGeometry width="30" height="30" as="geometry" />
        </mxCell>
        <mxCell id="7VVRhvUxhWVmFDyaeFcK-27" value="courseID&lt;br&gt;&lt;br&gt;name" style="shape=partialRectangle;top=0;left=0;right=0;bottom=0;html=1;align=left;verticalAlign=top;fillColor=none;spacingLeft=34;spacingRight=4;whiteSpace=wrap;overflow=hidden;rotatable=0;points=[[0,0.5],[1,0.5]];portConstraint=eastwest;dropTarget=0;" vertex="1" parent="7VVRhvUxhWVmFDyaeFcK-24">
          <mxGeometry y="56" width="160" height="60" as="geometry" />
        </mxCell>
        <mxCell id="7VVRhvUxhWVmFDyaeFcK-28" value="FK&lt;br&gt;" style="shape=partialRectangle;top=0;left=0;bottom=0;html=1;fillColor=none;align=left;verticalAlign=top;spacingLeft=4;spacingRight=4;whiteSpace=wrap;overflow=hidden;rotatable=0;points=[];portConstraint=eastwest;part=1;" vertex="1" connectable="0" parent="7VVRhvUxhWVmFDyaeFcK-27">
          <mxGeometry width="30" height="60" as="geometry" />
        </mxCell>
        <mxCell id="7VVRhvUxhWVmFDyaeFcK-29" value="dueDate&lt;br&gt;&lt;br&gt;body&lt;br&gt;&lt;br&gt;weight" style="shape=partialRectangle;top=0;left=0;right=0;bottom=0;html=1;align=left;verticalAlign=top;fillColor=none;spacingLeft=34;spacingRight=4;whiteSpace=wrap;overflow=hidden;rotatable=0;points=[[0,0.5],[1,0.5]];portConstraint=eastwest;dropTarget=0;" vertex="1" parent="7VVRhvUxhWVmFDyaeFcK-24">
          <mxGeometry y="116" width="160" height="94" as="geometry" />
        </mxCell>
        <mxCell id="7VVRhvUxhWVmFDyaeFcK-30" value="" style="shape=partialRectangle;top=0;left=0;bottom=0;html=1;fillColor=none;align=left;verticalAlign=top;spacingLeft=4;spacingRight=4;whiteSpace=wrap;overflow=hidden;rotatable=0;points=[];portConstraint=eastwest;part=1;" vertex="1" connectable="0" parent="7VVRhvUxhWVmFDyaeFcK-29">
          <mxGeometry width="30" height="94" as="geometry" />
        </mxCell>
        <mxCell id="7VVRhvUxhWVmFDyaeFcK-31" value="" style="shape=partialRectangle;top=0;left=0;right=0;bottom=0;html=1;align=left;verticalAlign=top;fillColor=none;spacingLeft=34;spacingRight=4;whiteSpace=wrap;overflow=hidden;rotatable=0;points=[[0,0.5],[1,0.5]];portConstraint=eastwest;dropTarget=0;" vertex="1" parent="7VVRhvUxhWVmFDyaeFcK-24">
          <mxGeometry y="210" width="160" height="20" as="geometry" />
        </mxCell>
        <mxCell id="7VVRhvUxhWVmFDyaeFcK-32" value="" style="shape=partialRectangle;top=0;left=0;bottom=0;html=1;fillColor=none;align=left;verticalAlign=top;spacingLeft=4;spacingRight=4;whiteSpace=wrap;overflow=hidden;rotatable=0;points=[];portConstraint=eastwest;part=1;" vertex="1" connectable="0" parent="7VVRhvUxhWVmFDyaeFcK-31">
          <mxGeometry width="30" height="20" as="geometry" />
        </mxCell>
        <mxCell id="7VVRhvUxhWVmFDyaeFcK-33" value="Submission" style="swimlane;html=1;fontStyle=0;childLayout=stackLayout;horizontal=1;startSize=26;fillColor=#e0e0e0;horizontalStack=0;resizeParent=1;resizeLast=0;collapsible=1;marginBottom=0;swimlaneFillColor=#ffffff;align=center;rounded=0;shadow=0;comic=0;labelBackgroundColor=none;strokeWidth=1;fontFamily=Verdana;fontSize=14" vertex="1" parent="1">
          <mxGeometry x="100" y="510" width="160" height="190" as="geometry" />
        </mxCell>
        <mxCell id="7VVRhvUxhWVmFDyaeFcK-34" value="submitID" style="shape=partialRectangle;top=0;left=0;right=0;bottom=1;html=1;align=left;verticalAlign=middle;fillColor=none;spacingLeft=34;spacingRight=4;whiteSpace=wrap;overflow=hidden;rotatable=0;points=[[0,0.5],[1,0.5]];portConstraint=eastwest;dropTarget=0;fontStyle=5;" vertex="1" parent="7VVRhvUxhWVmFDyaeFcK-33">
          <mxGeometry y="26" width="160" height="30" as="geometry" />
        </mxCell>
        <mxCell id="7VVRhvUxhWVmFDyaeFcK-35" value="PK" style="shape=partialRectangle;top=0;left=0;bottom=0;html=1;fillColor=none;align=left;verticalAlign=middle;spacingLeft=4;spacingRight=4;whiteSpace=wrap;overflow=hidden;rotatable=0;points=[];portConstraint=eastwest;part=1;" vertex="1" connectable="0" parent="7VVRhvUxhWVmFDyaeFcK-34">
          <mxGeometry width="30" height="30" as="geometry" />
        </mxCell>
        <mxCell id="7VVRhvUxhWVmFDyaeFcK-36" value="assignmentID&lt;br&gt;&lt;br&gt;studentID" style="shape=partialRectangle;top=0;left=0;right=0;bottom=0;html=1;align=left;verticalAlign=top;fillColor=none;spacingLeft=34;spacingRight=4;whiteSpace=wrap;overflow=hidden;rotatable=0;points=[[0,0.5],[1,0.5]];portConstraint=eastwest;dropTarget=0;" vertex="1" parent="7VVRhvUxhWVmFDyaeFcK-33">
          <mxGeometry y="56" width="160" height="60" as="geometry" />
        </mxCell>
        <mxCell id="7VVRhvUxhWVmFDyaeFcK-37" value="FK&lt;br&gt;&lt;br&gt;FK" style="shape=partialRectangle;top=0;left=0;bottom=0;html=1;fillColor=none;align=left;verticalAlign=top;spacingLeft=4;spacingRight=4;whiteSpace=wrap;overflow=hidden;rotatable=0;points=[];portConstraint=eastwest;part=1;" vertex="1" connectable="0" parent="7VVRhvUxhWVmFDyaeFcK-36">
          <mxGeometry width="30" height="60" as="geometry" />
        </mxCell>
        <mxCell id="7VVRhvUxhWVmFDyaeFcK-38" value="timeStamp&lt;br&gt;&lt;br&gt;text" style="shape=partialRectangle;top=0;left=0;right=0;bottom=0;html=1;align=left;verticalAlign=top;fillColor=none;spacingLeft=34;spacingRight=4;whiteSpace=wrap;overflow=hidden;rotatable=0;points=[[0,0.5],[1,0.5]];portConstraint=eastwest;dropTarget=0;" vertex="1" parent="7VVRhvUxhWVmFDyaeFcK-33">
          <mxGeometry y="116" width="160" height="54" as="geometry" />
        </mxCell>
        <mxCell id="7VVRhvUxhWVmFDyaeFcK-39" value="" style="shape=partialRectangle;top=0;left=0;bottom=0;html=1;fillColor=none;align=left;verticalAlign=top;spacingLeft=4;spacingRight=4;whiteSpace=wrap;overflow=hidden;rotatable=0;points=[];portConstraint=eastwest;part=1;" vertex="1" connectable="0" parent="7VVRhvUxhWVmFDyaeFcK-38">
          <mxGeometry width="30" height="54" as="geometry" />
        </mxCell>
        <mxCell id="7VVRhvUxhWVmFDyaeFcK-40" value="" style="shape=partialRectangle;top=0;left=0;right=0;bottom=0;html=1;align=left;verticalAlign=top;fillColor=none;spacingLeft=34;spacingRight=4;whiteSpace=wrap;overflow=hidden;rotatable=0;points=[[0,0.5],[1,0.5]];portConstraint=eastwest;dropTarget=0;" vertex="1" parent="7VVRhvUxhWVmFDyaeFcK-33">
          <mxGeometry y="170" width="160" height="20" as="geometry" />
        </mxCell>
        <mxCell id="7VVRhvUxhWVmFDyaeFcK-41" value="" style="shape=partialRectangle;top=0;left=0;bottom=0;html=1;fillColor=none;align=left;verticalAlign=top;spacingLeft=4;spacingRight=4;whiteSpace=wrap;overflow=hidden;rotatable=0;points=[];portConstraint=eastwest;part=1;" vertex="1" connectable="0" parent="7VVRhvUxhWVmFDyaeFcK-40">
          <mxGeometry width="30" height="20" as="geometry" />
        </mxCell>
        <mxCell id="7VVRhvUxhWVmFDyaeFcK-42" value="Grade" style="swimlane;html=1;fontStyle=0;childLayout=stackLayout;horizontal=1;startSize=26;fillColor=#e0e0e0;horizontalStack=0;resizeParent=1;resizeLast=0;collapsible=1;marginBottom=0;swimlaneFillColor=#ffffff;align=center;rounded=0;shadow=0;comic=0;labelBackgroundColor=none;strokeWidth=1;fontFamily=Verdana;fontSize=14" vertex="1" parent="1">
          <mxGeometry x="330" y="530" width="160" height="164" as="geometry" />
        </mxCell>
        <mxCell id="7VVRhvUxhWVmFDyaeFcK-43" value="gradeID" style="shape=partialRectangle;top=0;left=0;right=0;bottom=1;html=1;align=left;verticalAlign=middle;fillColor=none;spacingLeft=34;spacingRight=4;whiteSpace=wrap;overflow=hidden;rotatable=0;points=[[0,0.5],[1,0.5]];portConstraint=eastwest;dropTarget=0;fontStyle=5;" vertex="1" parent="7VVRhvUxhWVmFDyaeFcK-42">
          <mxGeometry y="26" width="160" height="30" as="geometry" />
        </mxCell>
        <mxCell id="7VVRhvUxhWVmFDyaeFcK-44" value="PK" style="shape=partialRectangle;top=0;left=0;bottom=0;html=1;fillColor=none;align=left;verticalAlign=middle;spacingLeft=4;spacingRight=4;whiteSpace=wrap;overflow=hidden;rotatable=0;points=[];portConstraint=eastwest;part=1;" vertex="1" connectable="0" parent="7VVRhvUxhWVmFDyaeFcK-43">
          <mxGeometry width="30" height="30" as="geometry" />
        </mxCell>
        <mxCell id="7VVRhvUxhWVmFDyaeFcK-45" value="assignmentID&lt;br&gt;&lt;br&gt;studentID" style="shape=partialRectangle;top=0;left=0;right=0;bottom=0;html=1;align=left;verticalAlign=top;fillColor=none;spacingLeft=34;spacingRight=4;whiteSpace=wrap;overflow=hidden;rotatable=0;points=[[0,0.5],[1,0.5]];portConstraint=eastwest;dropTarget=0;" vertex="1" parent="7VVRhvUxhWVmFDyaeFcK-42">
          <mxGeometry y="56" width="160" height="60" as="geometry" />
        </mxCell>
        <mxCell id="7VVRhvUxhWVmFDyaeFcK-46" value="FK&lt;br&gt;&lt;br&gt;FK" style="shape=partialRectangle;top=0;left=0;bottom=0;html=1;fillColor=none;align=left;verticalAlign=top;spacingLeft=4;spacingRight=4;whiteSpace=wrap;overflow=hidden;rotatable=0;points=[];portConstraint=eastwest;part=1;" vertex="1" connectable="0" parent="7VVRhvUxhWVmFDyaeFcK-45">
          <mxGeometry width="30" height="60" as="geometry" />
        </mxCell>
        <mxCell id="7VVRhvUxhWVmFDyaeFcK-47" value="grade" style="shape=partialRectangle;top=0;left=0;right=0;bottom=0;html=1;align=left;verticalAlign=top;fillColor=none;spacingLeft=34;spacingRight=4;whiteSpace=wrap;overflow=hidden;rotatable=0;points=[[0,0.5],[1,0.5]];portConstraint=eastwest;dropTarget=0;" vertex="1" parent="7VVRhvUxhWVmFDyaeFcK-42">
          <mxGeometry y="116" width="160" height="28" as="geometry" />
        </mxCell>
        <mxCell id="7VVRhvUxhWVmFDyaeFcK-48" value="" style="shape=partialRectangle;top=0;left=0;bottom=0;html=1;fillColor=none;align=left;verticalAlign=top;spacingLeft=4;spacingRight=4;whiteSpace=wrap;overflow=hidden;rotatable=0;points=[];portConstraint=eastwest;part=1;" vertex="1" connectable="0" parent="7VVRhvUxhWVmFDyaeFcK-47">
          <mxGeometry width="30" height="28" as="geometry" />
        </mxCell>
        <mxCell id="7VVRhvUxhWVmFDyaeFcK-49" value="" style="shape=partialRectangle;top=0;left=0;right=0;bottom=0;html=1;align=left;verticalAlign=top;fillColor=none;spacingLeft=34;spacingRight=4;whiteSpace=wrap;overflow=hidden;rotatable=0;points=[[0,0.5],[1,0.5]];portConstraint=eastwest;dropTarget=0;" vertex="1" parent="7VVRhvUxhWVmFDyaeFcK-42">
          <mxGeometry y="144" width="160" height="20" as="geometry" />
        </mxCell>
        <mxCell id="7VVRhvUxhWVmFDyaeFcK-50" value="" style="shape=partialRectangle;top=0;left=0;bottom=0;html=1;fillColor=none;align=left;verticalAlign=top;spacingLeft=4;spacingRight=4;whiteSpace=wrap;overflow=hidden;rotatable=0;points=[];portConstraint=eastwest;part=1;" vertex="1" connectable="0" parent="7VVRhvUxhWVmFDyaeFcK-49">
          <mxGeometry width="30" height="20" as="geometry" />
        </mxCell>
        <mxCell id="7VVRhvUxhWVmFDyaeFcK-51" value="Message" style="swimlane;html=1;fontStyle=0;childLayout=stackLayout;horizontal=1;startSize=26;fillColor=#e0e0e0;horizontalStack=0;resizeParent=1;resizeLast=0;collapsible=1;marginBottom=0;swimlaneFillColor=#ffffff;align=center;rounded=0;shadow=0;comic=0;labelBackgroundColor=none;strokeWidth=1;fontFamily=Verdana;fontSize=14" vertex="1" parent="1">
          <mxGeometry x="370" y="740" width="160" height="190" as="geometry" />
        </mxCell>
        <mxCell id="7VVRhvUxhWVmFDyaeFcK-52" value="messageID" style="shape=partialRectangle;top=0;left=0;right=0;bottom=1;html=1;align=left;verticalAlign=middle;fillColor=none;spacingLeft=34;spacingRight=4;whiteSpace=wrap;overflow=hidden;rotatable=0;points=[[0,0.5],[1,0.5]];portConstraint=eastwest;dropTarget=0;fontStyle=5;" vertex="1" parent="7VVRhvUxhWVmFDyaeFcK-51">
          <mxGeometry y="26" width="160" height="30" as="geometry" />
        </mxCell>
        <mxCell id="7VVRhvUxhWVmFDyaeFcK-53" value="PK" style="shape=partialRectangle;top=0;left=0;bottom=0;html=1;fillColor=none;align=left;verticalAlign=middle;spacingLeft=4;spacingRight=4;whiteSpace=wrap;overflow=hidden;rotatable=0;points=[];portConstraint=eastwest;part=1;" vertex="1" connectable="0" parent="7VVRhvUxhWVmFDyaeFcK-52">
          <mxGeometry width="30" height="30" as="geometry" />
        </mxCell>
        <mxCell id="7VVRhvUxhWVmFDyaeFcK-54" value="senderID&lt;br&gt;&lt;br&gt;recipientID" style="shape=partialRectangle;top=0;left=0;right=0;bottom=0;html=1;align=left;verticalAlign=top;fillColor=none;spacingLeft=34;spacingRight=4;whiteSpace=wrap;overflow=hidden;rotatable=0;points=[[0,0.5],[1,0.5]];portConstraint=eastwest;dropTarget=0;" vertex="1" parent="7VVRhvUxhWVmFDyaeFcK-51">
          <mxGeometry y="56" width="160" height="60" as="geometry" />
        </mxCell>
        <mxCell id="7VVRhvUxhWVmFDyaeFcK-55" value="FK&lt;br&gt;&lt;br&gt;FK" style="shape=partialRectangle;top=0;left=0;bottom=0;html=1;fillColor=none;align=left;verticalAlign=top;spacingLeft=4;spacingRight=4;whiteSpace=wrap;overflow=hidden;rotatable=0;points=[];portConstraint=eastwest;part=1;" vertex="1" connectable="0" parent="7VVRhvUxhWVmFDyaeFcK-54">
          <mxGeometry width="30" height="60" as="geometry" />
        </mxCell>
        <mxCell id="7VVRhvUxhWVmFDyaeFcK-56" value="title&lt;br&gt;&lt;br&gt;body" style="shape=partialRectangle;top=0;left=0;right=0;bottom=0;html=1;align=left;verticalAlign=top;fillColor=none;spacingLeft=34;spacingRight=4;whiteSpace=wrap;overflow=hidden;rotatable=0;points=[[0,0.5],[1,0.5]];portConstraint=eastwest;dropTarget=0;" vertex="1" parent="7VVRhvUxhWVmFDyaeFcK-51">
          <mxGeometry y="116" width="160" height="54" as="geometry" />
        </mxCell>
        <mxCell id="7VVRhvUxhWVmFDyaeFcK-57" value="" style="shape=partialRectangle;top=0;left=0;bottom=0;html=1;fillColor=none;align=left;verticalAlign=top;spacingLeft=4;spacingRight=4;whiteSpace=wrap;overflow=hidden;rotatable=0;points=[];portConstraint=eastwest;part=1;" vertex="1" connectable="0" parent="7VVRhvUxhWVmFDyaeFcK-56">
          <mxGeometry width="30" height="54" as="geometry" />
        </mxCell>
        <mxCell id="7VVRhvUxhWVmFDyaeFcK-58" value="" style="shape=partialRectangle;top=0;left=0;right=0;bottom=0;html=1;align=left;verticalAlign=top;fillColor=none;spacingLeft=34;spacingRight=4;whiteSpace=wrap;overflow=hidden;rotatable=0;points=[[0,0.5],[1,0.5]];portConstraint=eastwest;dropTarget=0;" vertex="1" parent="7VVRhvUxhWVmFDyaeFcK-51">
          <mxGeometry y="170" width="160" height="20" as="geometry" />
        </mxCell>
        <mxCell id="7VVRhvUxhWVmFDyaeFcK-59" value="" style="shape=partialRectangle;top=0;left=0;bottom=0;html=1;fillColor=none;align=left;verticalAlign=top;spacingLeft=4;spacingRight=4;whiteSpace=wrap;overflow=hidden;rotatable=0;points=[];portConstraint=eastwest;part=1;" vertex="1" connectable="0" parent="7VVRhvUxhWVmFDyaeFcK-58">
          <mxGeometry width="30" height="20" as="geometry" />
        </mxCell>
        <mxCell id="_2S2xZffsd2VG_qVzdSm-3" value="" style="edgeStyle=none;orthogonalLoop=1;jettySize=auto;html=1;rounded=0;entryX=0.385;entryY=-0.011;entryDx=0;entryDy=0;entryPerimeter=0;" edge="1" parent="1" target="FS1MWatXtpEkcnSkGoes-1">
          <mxGeometry width="100" relative="1" as="geometry">
            <mxPoint x="440" y="74.5" as="sourcePoint" />
            <mxPoint x="540" y="75" as="targetPoint" />
            <Array as="points">
              <mxPoint x="560" y="75" />
            </Array>
          </mxGeometry>
        </mxCell>
        <mxCell id="_2S2xZffsd2VG_qVzdSm-4" value="" style="edgeStyle=orthogonalEdgeStyle;endArrow=classic;html=1;rounded=0;endSize=8;startSize=8;sourcePerimeterSpacing=0;targetPerimeterSpacing=0;" edge="1" parent="1">
          <mxGeometry width="100" relative="1" as="geometry">
            <mxPoint x="150" y="55" as="sourcePoint" />
            <mxPoint x="250" y="95" as="targetPoint" />
          </mxGeometry>
        </mxCell>
      </root>
    </mxGraphModel>
  </diagram>
</mxfile>
